<svg width="364" height="489" viewBox="0 0 364 489" fill="none" xmlns="http://www.w3.org/2000/svg">
<path opacity="0.1" fill-rule="evenodd" clip-rule="evenodd" d="M-66.1979 0.267899C-21.4476 0.267899 14.8139 34.9806 14.8139 77.8055C14.8139 120.622 -21.4476 155.325 -66.1979 155.325C-110.94 155.325 -147.211 120.622 -147.211 77.8055C-147.211 34.9806 -110.94 0.267899 -66.1979 0.267899ZM282.186 333.675C326.931 333.675 363.208 368.378 363.208 411.193C363.208 454.019 326.931 488.73 282.186 488.73C237.444 488.73 201.167 454.019 201.167 411.193C201.167 368.378 237.444 333.675 282.186 333.675ZM282.186 363.477C309.709 363.477 332.056 384.854 332.056 411.193C332.056 437.537 309.709 458.922 282.186 458.922C254.661 458.922 232.328 437.537 232.328 411.193C232.328 384.854 254.661 363.477 282.186 363.477ZM107.991 333.675C152.742 333.675 189.008 368.378 189.008 411.193C189.008 454.019 152.742 488.73 107.991 488.73C63.2581 488.73 26.9865 454.019 26.9865 411.193C26.9865 368.378 63.2581 333.675 107.991 333.675ZM107.991 363.477C135.52 363.477 157.866 384.854 157.866 411.193C157.866 437.537 135.52 458.922 107.991 458.922C80.4628 458.922 58.1339 437.537 58.1339 411.193C58.1339 384.854 80.4628 363.477 107.991 363.477ZM-66.1979 333.675C-21.4476 333.675 14.8139 368.378 14.8139 411.193C14.8139 454.019 -21.4476 488.73 -66.1979 488.73C-110.94 488.73 -147.211 454.019 -147.211 411.193C-147.211 368.378 -110.94 333.675 -66.1979 333.675ZM-66.1979 363.477C-38.6659 363.477 -16.3335 384.854 -16.3335 411.193C-16.3335 437.537 -38.6659 458.922 -66.1979 458.922C-93.7316 458.922 -116.069 437.537 -116.069 411.193C-116.069 384.854 -93.7316 363.477 -66.1979 363.477ZM282.184 166.962C326.929 166.962 363.206 201.69 363.206 244.498C363.206 287.307 326.929 322.034 282.184 322.034C237.442 322.034 201.166 287.307 201.166 244.498C201.166 201.69 237.442 166.962 282.184 166.962ZM282.184 196.775C309.708 196.775 332.054 218.159 332.054 244.498C332.054 270.838 309.708 292.222 282.184 292.222C254.659 292.222 232.327 270.838 232.327 244.498C232.327 218.159 254.659 196.775 282.184 196.775ZM107.99 166.962C152.74 166.962 189.007 201.69 189.007 244.498C189.007 287.307 152.74 322.034 107.99 322.034C63.2564 322.034 26.9847 287.307 26.9847 244.498C26.9847 201.69 63.2564 166.962 107.99 166.962ZM107.99 196.775C135.518 196.775 157.864 218.159 157.864 244.498C157.864 270.838 135.518 292.222 107.99 292.222C80.4612 292.222 58.1321 270.838 58.1321 244.498C58.1321 218.159 80.4612 196.775 107.99 196.775ZM-66.1996 166.962C-21.4493 166.962 14.8122 201.69 14.8122 244.498C14.8122 287.307 -21.4493 322.034 -66.1996 322.034C-110.941 322.034 -147.213 287.307 -147.213 244.498C-147.213 201.69 -110.941 166.962 -66.1996 166.962ZM-66.1996 196.775C-38.6677 196.775 -16.3351 218.159 -16.3351 244.498C-16.3351 270.838 -38.6677 292.222 -66.1996 292.222C-93.7333 292.222 -116.071 270.838 -116.071 244.498C-116.071 218.159 -93.7333 196.775 -66.1996 196.775ZM282.183 0.266281C326.928 0.266281 363.205 34.979 363.205 77.8038C363.205 120.621 326.928 155.323 282.183 155.323C237.441 155.323 201.164 120.621 201.164 77.8038C201.164 34.979 237.441 0.266281 282.183 0.266281ZM282.183 30.0751C309.706 30.0751 332.052 51.4597 332.052 77.8038C332.052 104.143 309.706 125.52 282.183 125.52C254.657 125.52 232.325 104.143 232.325 77.8038C232.325 51.4597 254.657 30.0751 282.183 30.0751ZM107.988 0.266281C152.738 0.266281 189.005 34.979 189.005 77.8038C189.005 120.621 152.738 155.323 107.988 155.323C63.2548 155.323 26.983 120.621 26.983 77.8038C26.983 34.979 63.2548 0.266281 107.988 0.266281ZM107.988 30.0751C135.517 30.0751 157.863 51.4597 157.863 77.8038C157.863 104.143 135.517 125.52 107.988 125.52C80.4595 125.52 58.1304 104.143 58.1304 77.8038C58.1304 51.4597 80.4595 30.0751 107.988 30.0751ZM-66.2014 30.0751C-38.6694 30.0751 -16.3369 51.4597 -16.3369 77.8038C-16.3369 104.143 -38.6694 125.52 -66.2014 125.52C-93.735 125.52 -116.073 104.143 -116.073 77.8038C-116.073 51.4597 -93.735 30.0751 -66.2014 30.0751Z" fill="white"/>
</svg>
