<svg width="94" height="80" viewBox="0 0 94 80" fill="none" xmlns="http://www.w3.org/2000/svg">
<path fill-rule="evenodd" clip-rule="evenodd" d="M18.733 63.7793V71.9848H17.0564V63.7793H18.733ZM34.957 10.4615C37.9609 10.4615 40.395 12.6326 40.395 15.311C40.395 17.9889 37.9609 20.1594 34.957 20.1594C31.9537 20.1594 29.5189 17.9889 29.5189 15.311C29.5189 12.6326 31.9537 10.4615 34.957 10.4615ZM25.6745 10.4618H26.7617H27.849V20.1599H25.6743V12.4014H24.5871V10.4618H25.6745ZM46.6503 0C54.6207 0 61.8371 2.88102 67.0603 7.53832C72.2836 12.1954 75.5146 18.6298 75.5146 25.7367C75.5146 32.8435 72.2836 39.2778 67.0603 43.935C61.8372 48.5924 54.6209 51.4734 46.6503 51.4734C38.6798 51.4734 31.4635 48.5924 26.2403 43.935C21.017 39.2779 17.7859 32.8436 17.7859 25.7367C17.7859 23.6329 18.0719 21.5839 18.6089 19.6192C19.0024 18.18 19.5307 16.7891 20.1813 15.4591H23.4934C22.731 16.8224 22.1147 18.2634 21.6647 19.7648C21.0937 21.6674 20.7894 23.6701 20.7894 25.7367C20.7894 32.1038 23.6841 37.8688 28.3637 42.0416C33.0429 46.2142 39.5085 48.795 46.6501 48.795C53.7909 48.795 60.2567 46.2141 64.9364 42.0416C69.6161 37.8688 72.5107 32.1038 72.5107 25.7367C72.5107 19.369 69.616 13.604 64.9364 9.43189C60.2567 5.25917 53.7909 2.67832 46.6501 2.67832C43.3433 2.67832 40.1832 3.23063 37.2813 4.23647C35.0001 5.02755 32.8746 6.09908 30.961 7.40366H26.3969C28.9026 5.20277 31.8585 3.40565 35.1287 2.13438C38.6594 0.762271 42.5569 0 46.6503 0ZM58.3428 31.314C61.3464 31.314 63.7815 33.4844 63.7815 36.1622C63.7815 38.8408 61.3464 41.0117 58.3428 41.0117C55.3394 41.0117 52.9043 38.8408 52.9043 36.1622C52.9043 33.4844 55.3394 31.314 58.3428 31.314ZM58.3428 33.1779C60.1903 33.1779 61.6903 34.5149 61.6903 36.1622C61.6903 37.8099 60.1903 39.1474 58.3428 39.1474C56.4951 39.1474 54.996 37.8099 54.996 36.1622C54.996 34.5149 56.4951 33.1779 58.3428 33.1779ZM46.6497 31.314C49.6536 31.314 52.0881 33.4844 52.0881 36.1622C52.0881 38.8408 49.6536 41.0117 46.6497 41.0117C43.6469 41.0117 41.2121 38.8408 41.2121 36.1622C41.2121 33.4844 43.6469 31.314 46.6497 31.314ZM46.6497 33.1779C48.4976 33.1779 49.9976 34.5149 49.9976 36.1622C49.9976 37.8099 48.4976 39.1474 46.6497 39.1474C44.8018 39.1474 43.303 37.8099 43.303 36.1622C43.303 34.5149 44.8018 33.1779 46.6497 33.1779ZM34.957 31.314C37.9609 31.314 40.395 33.4844 40.395 36.1622C40.395 38.8408 37.9609 41.0117 34.957 41.0117C31.9537 41.0117 29.5189 38.8408 29.5189 36.1622C29.5189 33.4844 31.9537 31.314 34.957 31.314ZM34.957 33.1779C36.8051 33.1779 38.3042 34.5149 38.3042 36.1622C38.3042 37.8099 36.8051 39.1474 34.957 39.1474C33.1088 39.1474 31.6093 37.8099 31.6093 36.1622C31.6093 34.5149 33.1088 33.1779 34.957 33.1779ZM58.3426 20.8872C61.3462 20.8872 63.7814 23.0592 63.7814 25.7366C63.7814 28.414 61.3462 30.5859 58.3426 30.5859C55.3393 30.5859 52.9042 28.414 52.9042 25.7366C52.9042 23.0592 55.3393 20.8872 58.3426 20.8872ZM58.3426 22.7518C60.1902 22.7518 61.6902 24.0892 61.6902 25.7366C61.6902 27.3839 60.1902 28.7214 58.3426 28.7214C56.495 28.7214 54.9959 27.3839 54.9959 25.7366C54.9959 24.0892 56.495 22.7518 58.3426 22.7518ZM46.6496 20.8872C49.6535 20.8872 52.088 23.0592 52.088 25.7366C52.088 28.414 49.6535 30.5859 46.6496 30.5859C43.6468 30.5859 41.212 28.414 41.212 25.7366C41.212 23.0592 43.6468 20.8872 46.6496 20.8872ZM46.6496 22.7518C48.4975 22.7518 49.9975 24.0892 49.9975 25.7366C49.9975 27.3839 48.4975 28.7214 46.6496 28.7214C44.8017 28.7214 43.3028 27.3839 43.3028 25.7366C43.3028 24.0892 44.8017 22.7518 46.6496 22.7518ZM34.9569 20.8872C37.9608 20.8872 40.3949 23.0592 40.3949 25.7366C40.3949 28.414 37.9608 30.5859 34.9569 30.5859C31.9535 30.5859 29.5187 28.414 29.5187 25.7366C29.5187 23.0592 31.9535 20.8872 34.9569 20.8872ZM34.9569 22.7518C36.805 22.7518 38.3041 24.0892 38.3041 25.7366C38.3041 27.3839 36.805 28.7214 34.9569 28.7214C33.1087 28.7214 31.6092 27.3839 31.6092 25.7366C31.6092 24.0892 33.1087 22.7518 34.9569 22.7518ZM58.3425 10.4614C61.3461 10.4614 63.7813 12.6325 63.7813 15.3109C63.7813 17.9888 61.3461 20.1593 58.3425 20.1593C55.3392 20.1593 52.904 17.9888 52.904 15.3109C52.904 12.6325 55.3392 10.4614 58.3425 10.4614ZM58.3425 12.3258C60.1901 12.3258 61.6901 13.6633 61.6901 15.3109C61.6901 16.9583 60.1901 18.2952 58.3425 18.2952C56.4949 18.2952 54.9958 16.9583 54.9958 15.3109C54.9958 13.6633 56.4949 12.3258 58.3425 12.3258ZM46.6495 10.4614C49.6534 10.4614 52.0879 12.6325 52.0879 15.3109C52.0879 17.9888 49.6534 20.1593 46.6495 20.1593C43.6467 20.1593 41.2119 17.9888 41.2119 15.3109C41.2119 12.6325 43.6467 10.4614 46.6495 10.4614ZM46.6495 12.3258C48.4974 12.3258 49.9974 13.6633 49.9974 15.3109C49.9974 16.9583 48.4974 18.2952 46.6495 18.2952C44.8016 18.2952 43.3027 16.9583 43.3027 15.3109C43.3027 13.6633 44.8016 12.3258 46.6495 12.3258ZM34.9568 12.3258C36.8049 12.3258 38.304 13.6633 38.304 15.3109C38.304 16.9583 36.8049 18.2952 34.9568 18.2952C33.1085 18.2952 31.6091 16.9583 31.6091 15.3109C31.6091 13.6633 33.1085 12.3258 34.9568 12.3258ZM10.6327 66.2171L6.15476 69.69L1.67602 66.2171V71.9846H0V63.7791H0.868087L6.15476 67.8779L10.7315 64.3288C11.3688 63.8343 11.207 63.7791 12.0209 63.7791H12.3084V71.9846H10.6327V66.2171ZM83.5557 71.979V63.7738H88.6981C91.2302 63.7738 93.3 65.6184 93.3 67.8762C93.3 70.1339 91.2287 71.979 88.6981 71.979H83.5557ZM85.2317 70.7872H88.698C90.4296 70.7872 91.6238 69.3436 91.6238 67.8762C91.6238 66.4091 90.4294 64.9656 88.698 64.9656H85.2317V70.7872ZM76.44 68.4601L79.0568 71.979H77.0576L74.4969 68.491L74.4816 68.4722H73.6862L72.5493 68.4746L71.0442 68.4722V71.979H69.3678V63.7738H76.1726C77.6225 63.7738 78.8081 64.83 78.8069 66.1482L78.8072 66.1359C78.8026 67.3451 77.7622 68.3409 76.44 68.4601ZM71.0442 64.9651V67.2806H72.5484L73.6853 67.2776L75.6729 67.2752L75.7791 67.2779C76.4873 67.2779 77.0744 66.7621 77.0744 66.129V66.1228C77.0744 65.4884 76.4914 64.9675 75.7791 64.9675H72.5493L71.0442 64.9651ZM58.3248 64.7176L57.7207 63.7738H59.5325L64.83 71.979H62.9699L62.0894 70.6005C62.0567 70.5414 62.0209 70.483 61.9801 70.4281L61.9638 70.4056L59.0918 65.9153L56.8211 69.4211C56.8139 69.4337 56.8108 69.4388 56.8069 69.4434L55.1646 71.9791H53.6225L58.3248 64.7176ZM49.085 63.7791V71.9846H47.4089V63.7791H49.085ZM37.1201 70.793H42.6609V71.9846H35.4443V63.7791H37.12L37.1201 70.793ZM25.1563 70.793H30.6968V71.9846H23.4802V63.7791H25.1562L25.1563 70.793Z" fill="url(#paint0_linear_59:75)"/>
<g opacity="0.7">
<path d="M35.9463 78.0376C35.9463 77.6433 36.0343 77.2999 36.2104 77.0076C36.3864 76.7107 36.6298 76.4834 36.9405 76.3256C37.2512 76.1632 37.6059 76.082 38.0046 76.082C38.5276 76.082 38.9574 76.198 39.294 76.43C39.6357 76.662 39.8558 76.9775 39.9542 77.3765H39.3717C39.2992 77.1028 39.1412 76.8893 38.8979 76.7362C38.6597 76.5785 38.3619 76.4996 38.0046 76.4996C37.7198 76.4996 37.4635 76.5576 37.2357 76.6736C37.0078 76.7896 36.8266 76.9636 36.6919 77.1955C36.5625 77.4229 36.4978 77.7036 36.4978 78.0376C36.4978 78.3717 36.5625 78.6547 36.6919 78.8867C36.8266 79.1187 37.0078 79.2926 37.2357 79.4086C37.4635 79.5246 37.7198 79.5826 38.0046 79.5826C38.3619 79.5826 38.6597 79.5061 38.8979 79.353C39.1412 79.1952 39.2992 78.9771 39.3717 78.6988H39.9542C39.8558 79.0885 39.6357 79.4017 39.294 79.6383C38.9522 79.8749 38.5224 79.9932 38.0046 79.9932C37.6059 79.9932 37.2512 79.9143 36.9405 79.7566C36.6298 79.5942 36.3864 79.3669 36.2104 79.0746C36.0343 78.7776 35.9463 78.432 35.9463 78.0376Z" fill="url(#paint1_linear_59:75)"/>
<path d="M43.0555 74.7876V79.9375H42.5118V74.7876H43.0555Z" fill="url(#paint2_linear_59:75)"/>
<path d="M49.5141 76.1377V79.9375H48.9704V79.2694C48.8461 79.5061 48.6545 79.687 48.3956 79.8123C48.1367 79.9375 47.8468 80.0002 47.5257 80.0002C47.0182 80.0002 46.604 79.861 46.2829 79.5826C45.9619 79.2996 45.8014 78.8913 45.8014 78.3578V76.1377H46.3373V78.3021C46.3373 78.715 46.4512 79.0305 46.6791 79.2486C46.9121 79.4666 47.228 79.5757 47.6267 79.5757C48.0358 79.5757 48.362 79.4597 48.6054 79.2277C48.8487 78.9957 48.9704 78.6547 48.9704 78.2047V76.1377H49.5141Z" fill="url(#paint3_linear_59:75)"/>
<path d="M52.8448 76.9798C52.9846 76.7153 53.1995 76.4996 53.4895 76.3326C53.7847 76.1656 54.1316 76.082 54.5303 76.082C54.9187 76.082 55.2656 76.1632 55.5711 76.3256C55.8766 76.4834 56.1148 76.7107 56.2857 77.0076C56.4618 77.2999 56.5498 77.6409 56.5498 78.0307C56.5498 78.4204 56.4618 78.7637 56.2857 79.0607C56.1148 79.3576 55.8741 79.5872 55.5634 79.7496C55.2579 79.912 54.9135 79.9932 54.5303 79.9932C54.1264 79.9932 53.7769 79.912 53.4817 79.7496C53.1918 79.5826 52.9795 79.3669 52.8448 79.1024V79.9375H52.3089V74.7876H52.8448V76.9798ZM55.9983 78.0307C55.9983 77.7152 55.9284 77.4438 55.7886 77.2164C55.654 76.9844 55.4676 76.8081 55.2294 76.6875C54.9912 76.5669 54.7219 76.5066 54.4216 76.5066C54.1316 76.5066 53.8649 76.5692 53.6216 76.6945C53.3834 76.8197 53.1944 76.9984 53.0545 77.2303C52.9147 77.4623 52.8448 77.7314 52.8448 78.0376C52.8448 78.3438 52.9147 78.6129 53.0545 78.8449C53.1944 79.0769 53.3834 79.2555 53.6216 79.3808C53.8649 79.5061 54.1316 79.5687 54.4216 79.5687C54.7219 79.5687 54.9912 79.5084 55.2294 79.3877C55.4676 79.2625 55.654 79.0839 55.7886 78.8519C55.9284 78.6153 55.9983 78.3415 55.9983 78.0307Z" fill="url(#paint4_linear_59:75)"/>
</g>
<rect opacity="0.7" x="61.4946" y="77.0522" width="31.8052" height="0.316916" fill="url(#paint5_linear_59:75)"/>
<rect opacity="0.7" x="0.193359" y="77.0527" width="31.8052" height="0.316916" fill="url(#paint6_linear_59:75)"/>
<defs>
<linearGradient id="paint0_linear_59:75" x1="0" y1="35.9924" x2="93.3" y2="35.9924" gradientUnits="userSpaceOnUse">
<stop stop-color="#7A7A7A"/>
<stop offset="0.3" stop-color="#BD9555"/>
<stop offset="0.51453" stop-color="#D7C982"/>
<stop offset="0.6352" stop-color="#FCEFCF"/>
<stop offset="0.77591" stop-color="#E1B16E"/>
<stop offset="1" stop-color="#9A783A"/>
</linearGradient>
<linearGradient id="paint1_linear_59:75" x1="35.9463" y1="77.3939" x2="56.5498" y2="77.3939" gradientUnits="userSpaceOnUse">
<stop stop-color="#7A7A7A"/>
<stop offset="0.3" stop-color="#BD9555"/>
<stop offset="0.51453" stop-color="#D7C982"/>
<stop offset="0.6352" stop-color="#FCEFCF"/>
<stop offset="0.77591" stop-color="#E1B16E"/>
<stop offset="1" stop-color="#9A783A"/>
</linearGradient>
<linearGradient id="paint2_linear_59:75" x1="35.9463" y1="77.3939" x2="56.5498" y2="77.3939" gradientUnits="userSpaceOnUse">
<stop stop-color="#7A7A7A"/>
<stop offset="0.3" stop-color="#BD9555"/>
<stop offset="0.51453" stop-color="#D7C982"/>
<stop offset="0.6352" stop-color="#FCEFCF"/>
<stop offset="0.77591" stop-color="#E1B16E"/>
<stop offset="1" stop-color="#9A783A"/>
</linearGradient>
<linearGradient id="paint3_linear_59:75" x1="35.9463" y1="77.3939" x2="56.5498" y2="77.3939" gradientUnits="userSpaceOnUse">
<stop stop-color="#7A7A7A"/>
<stop offset="0.3" stop-color="#BD9555"/>
<stop offset="0.51453" stop-color="#D7C982"/>
<stop offset="0.6352" stop-color="#FCEFCF"/>
<stop offset="0.77591" stop-color="#E1B16E"/>
<stop offset="1" stop-color="#9A783A"/>
</linearGradient>
<linearGradient id="paint4_linear_59:75" x1="35.9463" y1="77.3939" x2="56.5498" y2="77.3939" gradientUnits="userSpaceOnUse">
<stop stop-color="#7A7A7A"/>
<stop offset="0.3" stop-color="#BD9555"/>
<stop offset="0.51453" stop-color="#D7C982"/>
<stop offset="0.6352" stop-color="#FCEFCF"/>
<stop offset="0.77591" stop-color="#E1B16E"/>
<stop offset="1" stop-color="#9A783A"/>
</linearGradient>
<linearGradient id="paint5_linear_59:75" x1="61.4946" y1="77.2107" x2="93.2998" y2="77.2107" gradientUnits="userSpaceOnUse">
<stop stop-color="#7A7A7A"/>
<stop offset="0.3" stop-color="#BD9555"/>
<stop offset="0.51453" stop-color="#D7C982"/>
<stop offset="0.6352" stop-color="#FCEFCF"/>
<stop offset="0.77591" stop-color="#E1B16E"/>
<stop offset="1" stop-color="#9A783A"/>
</linearGradient>
<linearGradient id="paint6_linear_59:75" x1="0.193359" y1="77.2112" x2="31.9985" y2="77.2112" gradientUnits="userSpaceOnUse">
<stop stop-color="#7A7A7A"/>
<stop offset="0.3" stop-color="#BD9555"/>
<stop offset="0.51453" stop-color="#D7C982"/>
<stop offset="0.6352" stop-color="#FCEFCF"/>
<stop offset="0.77591" stop-color="#E1B16E"/>
<stop offset="1" stop-color="#9A783A"/>
</linearGradient>
</defs>
</svg>
