<svg width="341" height="292" viewBox="0 0 341 292" fill="none" xmlns="http://www.w3.org/2000/svg">
<path fill-rule="evenodd" clip-rule="evenodd" d="M68.4667 232.794V262.744H62.3389V232.794H68.4667ZM127.764 38.1845C138.743 38.1845 147.639 46.1089 147.639 55.8851C147.639 65.6594 138.743 73.5815 127.764 73.5815C116.787 73.5815 107.888 65.6594 107.888 55.8851C107.888 46.1089 116.787 38.1845 127.764 38.1845ZM93.837 38.1856H97.8109H101.785V73.5834H93.8365V45.265H89.8626V38.1856H93.837ZM170.501 0C199.632 0 226.007 10.5157 245.097 27.5148C264.188 44.5132 275.997 67.9987 275.997 93.9387C275.997 119.879 264.188 143.364 245.097 160.363C226.007 177.362 199.632 187.877 170.501 187.877C141.37 187.877 114.995 177.362 95.9049 160.363C76.8144 143.364 65.0054 119.879 65.0054 93.9387C65.0054 86.2601 66.0507 78.781 68.0131 71.61C69.4512 66.3568 71.3823 61.28 73.7602 56.4258H85.8653C83.0791 61.4015 80.8264 66.6614 79.1818 72.1414C77.095 79.0857 75.9827 86.3959 75.9827 93.9387C75.9827 117.179 86.5626 138.221 103.666 153.451C120.768 168.682 144.399 178.102 170.5 178.102C196.599 178.102 220.231 168.681 237.334 153.451C254.438 138.221 265.018 117.179 265.018 93.9387C265.018 70.6967 254.438 49.6545 237.334 34.4263C220.231 19.1959 196.599 9.77584 170.5 9.77584C158.414 9.77584 146.865 11.7918 136.259 15.4631C127.921 18.3505 120.152 22.2616 113.159 27.0233H96.4774C105.636 18.9901 116.439 12.4306 128.391 7.79047C141.295 2.78228 155.54 0 170.501 0ZM213.236 114.296C224.213 114.296 233.113 122.218 233.113 131.992C233.113 141.769 224.213 149.693 213.236 149.693C202.259 149.693 193.359 141.769 193.359 131.992C193.359 122.218 202.259 114.296 213.236 114.296ZM213.236 121.099C219.988 121.099 225.471 125.979 225.471 131.992C225.471 138.006 219.988 142.888 213.236 142.888C206.483 142.888 201.004 138.006 201.004 131.992C201.004 125.979 206.483 121.099 213.236 121.099ZM170.499 114.296C181.478 114.296 190.376 122.218 190.376 131.992C190.376 141.769 181.478 149.693 170.499 149.693C159.524 149.693 150.625 141.769 150.625 131.992C150.625 122.218 159.524 114.296 170.499 114.296ZM170.499 121.099C177.253 121.099 182.735 125.979 182.735 131.992C182.735 138.006 177.253 142.888 170.499 142.888C163.745 142.888 158.267 138.006 158.267 131.992C158.267 125.979 163.745 121.099 170.499 121.099ZM127.764 114.296C138.743 114.296 147.639 122.218 147.639 131.992C147.639 141.769 138.743 149.693 127.764 149.693C116.787 149.693 107.888 141.769 107.888 131.992C107.888 122.218 116.787 114.296 127.764 114.296ZM127.764 121.099C134.518 121.099 139.997 125.979 139.997 131.992C139.997 138.006 134.518 142.888 127.764 142.888C121.008 142.888 115.528 138.006 115.528 131.992C115.528 125.979 121.008 121.099 127.764 121.099ZM213.235 76.2382C224.213 76.2382 233.113 84.1659 233.113 93.9383C233.113 103.711 224.213 111.639 213.235 111.639C202.258 111.639 193.358 103.711 193.358 93.9383C193.358 84.1659 202.258 76.2382 213.235 76.2382ZM213.235 83.0438C219.988 83.0438 225.47 87.9255 225.47 93.9383C225.47 99.9511 219.988 104.833 213.235 104.833C206.482 104.833 201.003 99.9511 201.003 93.9383C201.003 87.9255 206.482 83.0438 213.235 83.0438ZM170.498 76.2382C181.477 76.2382 190.375 84.1659 190.375 93.9383C190.375 103.711 181.477 111.639 170.498 111.639C159.524 111.639 150.625 103.711 150.625 93.9383C150.625 84.1659 159.524 76.2382 170.498 76.2382ZM170.498 83.0438C177.252 83.0438 182.735 87.9255 182.735 93.9383C182.735 99.9511 177.252 104.833 170.498 104.833C163.745 104.833 158.266 99.9511 158.266 93.9383C158.266 87.9255 163.745 83.0438 170.498 83.0438ZM127.763 76.2382C138.742 76.2382 147.638 84.1659 147.638 93.9383C147.638 103.711 138.742 111.639 127.763 111.639C116.786 111.639 107.887 103.711 107.887 93.9383C107.887 84.1659 116.786 76.2382 127.763 76.2382ZM127.763 83.0438C134.518 83.0438 139.997 87.9255 139.997 93.9383C139.997 99.9511 134.518 104.833 127.763 104.833C121.008 104.833 115.528 99.9511 115.528 93.9383C115.528 87.9255 121.008 83.0438 127.763 83.0438ZM213.235 38.1842C224.212 38.1842 233.113 46.1085 233.113 55.8847C233.113 65.6591 224.212 73.5812 213.235 73.5812C202.258 73.5812 193.358 65.6591 193.358 55.8847C193.358 46.1085 202.258 38.1842 213.235 38.1842ZM213.235 44.989C219.987 44.989 225.47 49.8708 225.47 55.8847C225.47 61.8975 219.987 66.7774 213.235 66.7774C206.482 66.7774 201.003 61.8975 201.003 55.8847C201.003 49.8708 206.482 44.989 213.235 44.989ZM170.498 38.1842C181.477 38.1842 190.375 46.1085 190.375 55.8847C190.375 65.6591 181.477 73.5812 170.498 73.5812C159.523 73.5812 150.624 65.6591 150.624 55.8847C150.624 46.1085 159.523 38.1842 170.498 38.1842ZM170.498 44.989C177.252 44.989 182.734 49.8708 182.734 55.8847C182.734 61.8975 177.252 66.7774 170.498 66.7774C163.744 66.7774 158.266 61.8975 158.266 55.8847C158.266 49.8708 163.744 44.989 170.498 44.989ZM127.763 44.989C134.517 44.989 139.996 49.8708 139.996 55.8847C139.996 61.8975 134.517 66.7774 127.763 66.7774C121.008 66.7774 115.527 61.8975 115.527 55.8847C115.527 49.8708 121.008 44.989 127.763 44.989ZM38.8612 241.692L22.4949 254.368L6.12564 241.692V262.743H0V232.793H3.17275L22.4949 247.754L39.2222 234.8C41.5515 232.995 40.9602 232.793 43.9348 232.793H44.9856V262.743H38.8612V241.692ZM305.386 262.723V232.774H324.18C333.435 232.774 341 239.507 341 247.748C341 255.988 333.429 262.723 324.18 262.723H305.386ZM311.511 258.373H324.18C330.509 258.373 334.873 253.104 334.873 247.748C334.873 242.393 330.508 237.124 324.18 237.124H311.511V258.373ZM279.379 249.879L288.943 262.723H281.636L272.277 249.992L272.221 249.923H269.314L265.159 249.932L259.658 249.923V262.723H253.531V232.774H278.401C283.701 232.774 288.034 236.629 288.029 241.44L288.031 241.396C288.014 245.809 284.211 249.444 279.379 249.879ZM259.658 237.122V245.574H265.155L269.311 245.563L276.575 245.554L276.963 245.564C279.552 245.564 281.697 243.681 281.697 241.37V241.348C281.697 239.032 279.566 237.131 276.963 237.131H265.159L259.658 237.122ZM213.17 236.219L210.962 232.774H217.584L236.946 262.723H230.147L226.929 257.691C226.809 257.476 226.679 257.263 226.53 257.062L226.47 256.98L215.973 240.591L207.674 253.387C207.648 253.432 207.636 253.451 207.622 253.468L201.62 262.723H195.984L213.17 236.219ZM179.399 232.793V262.743H173.274V232.793H179.399ZM135.669 258.394H155.92V262.743H129.545V232.793H135.669L135.669 258.394ZM91.9432 258.394H112.193V262.743H85.8171V232.793H91.9428L91.9432 258.394Z" fill="url(#paint0_linear_59:56)"/>
<g opacity="0.7">
<path d="M131.38 284.837C131.38 283.397 131.702 282.144 132.345 281.077C132.989 279.993 133.878 279.164 135.014 278.588C136.149 277.995 137.446 277.699 138.903 277.699C140.815 277.699 142.385 278.122 143.616 278.969C144.865 279.816 145.669 280.967 146.029 282.424H143.899C143.634 281.424 143.057 280.645 142.168 280.087C141.297 279.511 140.209 279.223 138.903 279.223C137.862 279.223 136.925 279.435 136.093 279.858C135.26 280.281 134.597 280.916 134.105 281.763C133.632 282.593 133.396 283.617 133.396 284.837C133.396 286.056 133.632 287.089 134.105 287.936C134.597 288.782 135.26 289.417 136.093 289.841C136.925 290.264 137.862 290.476 138.903 290.476C140.209 290.476 141.297 290.196 142.168 289.638C143.057 289.062 143.634 288.266 143.899 287.25H146.029C145.669 288.672 144.865 289.815 143.616 290.679C142.366 291.543 140.796 291.975 138.903 291.975C137.446 291.975 136.149 291.687 135.014 291.111C133.878 290.518 132.989 289.688 132.345 288.622C131.702 287.538 131.38 286.276 131.38 284.837Z" fill="url(#paint1_linear_59:56)"/>
<path d="M157.363 272.974V291.771H155.376V272.974H157.363Z" fill="url(#paint2_linear_59:56)"/>
<path d="M180.969 277.902V291.771H178.982V289.333C178.527 290.196 177.827 290.857 176.881 291.314C175.935 291.771 174.875 292 173.701 292C171.847 292 170.333 291.492 169.159 290.476C167.986 289.443 167.399 287.953 167.399 286.005V277.902H169.358V285.802C169.358 287.309 169.774 288.461 170.607 289.257C171.459 290.053 172.613 290.45 174.07 290.45C175.566 290.45 176.758 290.027 177.647 289.18C178.537 288.334 178.982 287.089 178.982 285.446V277.902H180.969Z" fill="url(#paint3_linear_59:56)"/>
<path d="M193.142 280.976C193.653 280.01 194.439 279.223 195.498 278.613C196.577 278.004 197.845 277.699 199.302 277.699C200.722 277.699 201.99 277.995 203.106 278.588C204.223 279.164 205.094 279.993 205.718 281.077C206.362 282.144 206.683 283.389 206.683 284.811C206.683 286.234 206.362 287.487 205.718 288.571C205.094 289.655 204.214 290.493 203.078 291.086C201.962 291.678 200.703 291.975 199.302 291.975C197.826 291.975 196.549 291.678 195.47 291.086C194.41 290.476 193.634 289.688 193.142 288.723V291.771H191.183V272.974H193.142V280.976ZM204.668 284.811C204.668 283.66 204.412 282.669 203.901 281.839C203.409 280.993 202.728 280.349 201.857 279.909C200.987 279.468 200.003 279.248 198.905 279.248C197.845 279.248 196.871 279.477 195.981 279.934C195.11 280.391 194.42 281.043 193.909 281.89C193.398 282.737 193.142 283.719 193.142 284.837C193.142 285.954 193.398 286.937 193.909 287.783C194.42 288.63 195.11 289.282 195.981 289.739C196.871 290.196 197.845 290.425 198.905 290.425C200.003 290.425 200.987 290.205 201.857 289.765C202.728 289.307 203.409 288.655 203.901 287.809C204.412 286.945 204.668 285.946 204.668 284.811Z" fill="url(#paint4_linear_59:56)"/>
</g>
<rect opacity="0.7" x="224.756" y="281.24" width="116.244" height="1.15674" fill="url(#paint5_linear_59:56)"/>
<rect opacity="0.7" x="0.707031" y="281.24" width="116.244" height="1.15674" fill="url(#paint6_linear_59:56)"/>
<defs>
<linearGradient id="paint0_linear_59:56" x1="0" y1="131.372" x2="341" y2="131.372" gradientUnits="userSpaceOnUse">
<stop stop-color="#7A7A7A"/>
<stop offset="0.3" stop-color="#BD9555"/>
<stop offset="0.51453" stop-color="#D7C982"/>
<stop offset="0.6352" stop-color="#FCEFCF"/>
<stop offset="0.77591" stop-color="#E1B16E"/>
<stop offset="1" stop-color="#9A783A"/>
</linearGradient>
<linearGradient id="paint1_linear_59:56" x1="131.38" y1="282.487" x2="206.683" y2="282.487" gradientUnits="userSpaceOnUse">
<stop stop-color="#7A7A7A"/>
<stop offset="0.3" stop-color="#BD9555"/>
<stop offset="0.51453" stop-color="#D7C982"/>
<stop offset="0.6352" stop-color="#FCEFCF"/>
<stop offset="0.77591" stop-color="#E1B16E"/>
<stop offset="1" stop-color="#9A783A"/>
</linearGradient>
<linearGradient id="paint2_linear_59:56" x1="131.38" y1="282.487" x2="206.683" y2="282.487" gradientUnits="userSpaceOnUse">
<stop stop-color="#7A7A7A"/>
<stop offset="0.3" stop-color="#BD9555"/>
<stop offset="0.51453" stop-color="#D7C982"/>
<stop offset="0.6352" stop-color="#FCEFCF"/>
<stop offset="0.77591" stop-color="#E1B16E"/>
<stop offset="1" stop-color="#9A783A"/>
</linearGradient>
<linearGradient id="paint3_linear_59:56" x1="131.38" y1="282.487" x2="206.683" y2="282.487" gradientUnits="userSpaceOnUse">
<stop stop-color="#7A7A7A"/>
<stop offset="0.3" stop-color="#BD9555"/>
<stop offset="0.51453" stop-color="#D7C982"/>
<stop offset="0.6352" stop-color="#FCEFCF"/>
<stop offset="0.77591" stop-color="#E1B16E"/>
<stop offset="1" stop-color="#9A783A"/>
</linearGradient>
<linearGradient id="paint4_linear_59:56" x1="131.38" y1="282.487" x2="206.683" y2="282.487" gradientUnits="userSpaceOnUse">
<stop stop-color="#7A7A7A"/>
<stop offset="0.3" stop-color="#BD9555"/>
<stop offset="0.51453" stop-color="#D7C982"/>
<stop offset="0.6352" stop-color="#FCEFCF"/>
<stop offset="0.77591" stop-color="#E1B16E"/>
<stop offset="1" stop-color="#9A783A"/>
</linearGradient>
<linearGradient id="paint5_linear_59:56" x1="224.756" y1="281.819" x2="341" y2="281.819" gradientUnits="userSpaceOnUse">
<stop stop-color="#7A7A7A"/>
<stop offset="0.3" stop-color="#BD9555"/>
<stop offset="0.51453" stop-color="#D7C982"/>
<stop offset="0.6352" stop-color="#FCEFCF"/>
<stop offset="0.77591" stop-color="#E1B16E"/>
<stop offset="1" stop-color="#9A783A"/>
</linearGradient>
<linearGradient id="paint6_linear_59:56" x1="0.707031" y1="281.819" x2="116.951" y2="281.819" gradientUnits="userSpaceOnUse">
<stop stop-color="#7A7A7A"/>
<stop offset="0.3" stop-color="#BD9555"/>
<stop offset="0.51453" stop-color="#D7C982"/>
<stop offset="0.6352" stop-color="#FCEFCF"/>
<stop offset="0.77591" stop-color="#E1B16E"/>
<stop offset="1" stop-color="#9A783A"/>
</linearGradient>
</defs>
</svg>
