<svg width="13030" height="12690" viewBox="0 0 13030 12690" fill="none" xmlns="http://www.w3.org/2000/svg">
<path fill-rule="evenodd" clip-rule="evenodd" d="M2616.06 9992.14V11277.7H2381.92V9992.14H2616.06ZM4881.74 1638.98C5301.24 1638.98 5641.16 1979.12 5641.16 2398.74C5641.16 2818.28 5301.24 3158.32 4881.74 3158.32C4462.32 3158.32 4122.31 2818.28 4122.31 2398.74C4122.31 1979.12 4462.32 1638.98 4881.74 1638.98ZM3585.44 1639.03H3737.28H3889.11V3158.4H3585.42V1942.89H3433.58V1639.03H3585.44ZM6514.71 0C7627.78 0 8635.55 451.362 9364.96 1181.01C10094.4 1910.62 10545.6 2918.69 10545.6 4032.1C10545.6 5145.51 10094.4 6153.56 9364.96 6883.19C8635.56 7612.85 7627.8 8064.2 6514.71 8064.2C5401.64 8064.2 4393.87 7612.85 3664.45 6883.19C2935.02 6153.57 2483.8 5145.53 2483.8 4032.1C2483.8 3702.51 2523.74 3381.49 2598.73 3073.69C2653.68 2848.21 2727.46 2630.3 2818.32 2421.95H3280.84C3174.39 2635.52 3088.31 2861.29 3025.47 3096.5C2945.74 3394.57 2903.24 3708.34 2903.24 4032.1C2903.24 5029.63 3307.49 5932.82 3960.99 6586.55C4614.44 7240.26 5517.36 7644.59 6514.68 7644.59C7511.9 7644.59 8414.84 7240.24 9068.36 6586.55C9721.88 5932.82 10126.1 5029.63 10126.1 4032.1C10126.1 3034.49 9721.87 2131.3 9068.36 1477.67C8414.84 823.94 7511.9 419.605 6514.68 419.605C6052.89 419.605 5611.58 506.135 5206.34 663.717C4887.76 787.654 4590.93 955.528 4323.7 1159.91H3686.33C4036.25 815.105 4449.04 533.554 4905.71 334.388C5398.79 119.423 5943.07 0 6514.71 0ZM8147.56 4905.88C8567.01 4905.88 8907.08 5245.92 8907.08 5665.45C8907.08 6085.08 8567.01 6425.2 8147.56 6425.2C7728.14 6425.2 7388.08 6085.08 7388.08 5665.45C7388.08 5245.92 7728.14 4905.88 8147.56 4905.88ZM8147.56 5197.9C8405.57 5197.9 8615.05 5407.36 8615.05 5665.45C8615.05 5923.58 8405.57 6133.12 8147.56 6133.12C7889.54 6133.12 7680.19 5923.58 7680.19 5665.45C7680.19 5407.36 7889.54 5197.9 8147.56 5197.9ZM6514.63 4905.88C6934.13 4905.88 7274.1 5245.92 7274.1 5665.45C7274.1 6085.08 6934.13 6425.2 6514.63 6425.2C6095.29 6425.2 5755.27 6085.08 5755.27 5665.45C5755.27 5245.92 6095.29 4905.88 6514.63 4905.88ZM6514.63 5197.9C6772.69 5197.9 6982.16 5407.36 6982.16 5665.45C6982.16 5923.58 6772.69 6133.12 6514.63 6133.12C6256.57 6133.12 6047.25 5923.58 6047.25 5665.45C6047.25 5407.36 6256.57 5197.9 6514.63 5197.9ZM4881.74 4905.88C5301.24 4905.88 5641.16 5245.92 5641.16 5665.45C5641.16 6085.08 5301.24 6425.2 4881.74 6425.2C4462.32 6425.2 4122.31 6085.08 4122.31 5665.45C4122.31 5245.92 4462.32 4905.88 4881.74 4905.88ZM4881.74 5197.9C5139.83 5197.9 5349.18 5407.36 5349.18 5665.45C5349.18 5923.58 5139.83 6133.12 4881.74 6133.12C4623.64 6133.12 4414.24 5923.58 4414.24 5665.45C4414.24 5407.36 4623.64 5197.9 4881.74 5197.9ZM8147.55 3272.34C8567 3272.34 8907.06 3612.62 8907.06 4032.08C8907.06 4451.54 8567 4791.82 8147.55 4791.82C7728.13 4791.82 7388.06 4451.54 7388.06 4032.08C7388.06 3612.62 7728.13 3272.34 8147.55 3272.34ZM8147.55 3564.46C8405.56 3564.46 8615.03 3774 8615.03 4032.08C8615.03 4290.17 8405.56 4499.71 8147.55 4499.71C7889.52 4499.71 7680.17 4290.17 7680.17 4032.08C7680.17 3774 7889.52 3564.46 8147.55 3564.46ZM6514.61 3272.34C6934.11 3272.34 7274.08 3612.62 7274.08 4032.08C7274.08 4451.54 6934.11 4791.82 6514.61 4791.82C6095.27 4791.82 5755.26 4451.54 5755.26 4032.08C5755.26 3612.62 6095.27 3272.34 6514.61 3272.34ZM6514.61 3564.46C6772.67 3564.46 6982.15 3774 6982.15 4032.08C6982.15 4290.17 6772.67 4499.71 6514.61 4499.71C6256.55 4499.71 6047.24 4290.17 6047.24 4032.08C6047.24 3774 6256.55 3564.46 6514.61 3564.46ZM4881.73 3272.34C5301.23 3272.34 5641.15 3612.62 5641.15 4032.08C5641.15 4451.54 5301.23 4791.82 4881.73 4791.82C4462.31 4791.82 4122.29 4451.54 4122.29 4032.08C4122.29 3612.62 4462.31 3272.34 4881.73 3272.34ZM4881.73 3564.46C5139.82 3564.46 5349.17 3774 5349.17 4032.08C5349.17 4290.17 5139.82 4499.71 4881.73 4499.71C4623.62 4499.71 4414.22 4290.17 4414.22 4032.08C4414.22 3774 4623.62 3564.46 4881.73 3564.46ZM8147.53 1638.97C8566.98 1638.97 8907.05 1979.1 8907.05 2398.72C8907.05 2818.26 8566.98 3158.3 8147.53 3158.3C7728.11 3158.3 7388.04 2818.26 7388.04 2398.72C7388.04 1979.1 7728.11 1638.97 8147.53 1638.97ZM8147.53 1931.05C8405.54 1931.05 8615.02 2140.59 8615.02 2398.72C8615.02 2656.81 8405.54 2866.26 8147.53 2866.26C7889.5 2866.26 7680.15 2656.81 7680.15 2398.72C7680.15 2140.59 7889.5 1931.05 8147.53 1931.05ZM6514.6 1638.97C6934.1 1638.97 7274.06 1979.1 7274.06 2398.72C7274.06 2818.26 6934.1 3158.3 6514.6 3158.3C6095.26 3158.3 5755.24 2818.26 5755.24 2398.72C5755.24 1979.1 6095.26 1638.97 6514.6 1638.97ZM6514.6 1931.05C6772.66 1931.05 6982.13 2140.59 6982.13 2398.72C6982.13 2656.81 6772.66 2866.26 6514.6 2866.26C6256.54 2866.26 6047.22 2656.81 6047.22 2398.72C6047.22 2140.59 6256.54 1931.05 6514.6 1931.05ZM4881.71 1931.05C5139.8 1931.05 5349.15 2140.59 5349.15 2398.72C5349.15 2656.81 5139.8 2866.26 4881.71 2866.26C4623.6 2866.26 4414.21 2656.81 4414.21 2398.72C4414.21 2140.59 4623.6 1931.05 4881.71 1931.05ZM1484.85 10374.1L859.511 10918.2L234.056 10374.1V11277.6H0V9992.11H121.228L859.511 10634.3L1498.65 10078.2C1587.65 10000.8 1565.05 9992.11 1678.71 9992.11H1718.86V11277.6H1484.85V10374.1ZM11668.5 11276.8V9991.28H12386.7C12740.3 9991.28 13029.3 10280.3 13029.3 10634C13029.3 10987.7 12740.1 11276.8 12386.7 11276.8H11668.5ZM11902.6 11090H12386.7C12628.5 11090 12795.2 10863.9 12795.2 10634C12795.2 10404.1 12628.5 10178 12386.7 10178H11902.6V11090ZM10674.8 10725.5L11040.3 11276.8H10761.1L10403.5 10730.3L10401.3 10727.4H10290.3L10131.5 10727.7L9921.31 10727.4V11276.8H9687.21V9991.28H10637.5C10840 9991.28 11005.5 10156.8 11005.4 10363.3L11005.4 10361.3C11004.8 10550.8 10859.5 10706.8 10674.8 10725.5ZM9921.31 10177.9V10540.7H10131.4L10290.1 10540.2L10567.7 10539.8L10582.5 10540.3C10681.5 10540.3 10763.4 10459.4 10763.4 10360.3V10359.3C10763.4 10259.9 10682 10178.3 10582.5 10178.3H10131.5L9921.31 10177.9ZM8145.05 10139.1L8060.69 9991.28H8313.71L9053.51 11276.8H8793.74L8670.78 11060.8C8666.21 11051.5 8661.21 11042.4 8655.52 11033.8L8653.25 11030.3L8252.16 10326.8L7935.06 10876C7934.05 10878 7933.62 10878.8 7933.08 10879.5L7703.72 11276.8H7488.37L8145.05 10139.1ZM6854.71 9992.11V11277.6H6620.65V9992.11H6854.71ZM5183.82 11091H5957.6V11277.6H4949.8V9992.11H5183.81L5183.82 11091ZM3513.08 11091H4286.8V11277.6H3279V9992.11H3513.06L3513.08 11091Z" fill="url(#paint0_linear_541_11)"/>
<g opacity="0.7">
<path d="M5288.31 12443.6C5288.31 12394.3 5298.18 12351.3 5317.9 12314.8C5337.63 12277.7 5364.9 12249.2 5399.71 12229.5C5434.52 12209.2 5474.26 12199 5518.94 12199C5577.54 12199 5625.69 12213.5 5663.4 12242.6C5701.7 12271.6 5726.35 12311 5737.38 12360.9H5672.11C5663.98 12326.7 5646.29 12300 5619.02 12280.8C5592.33 12261.1 5558.97 12251.3 5518.94 12251.3C5487.03 12251.3 5458.31 12258.5 5432.78 12273C5407.25 12287.5 5386.94 12309.3 5371.86 12338.3C5357.35 12366.7 5350.1 12401.8 5350.1 12443.6C5350.1 12485.4 5357.35 12520.8 5371.86 12549.8C5386.94 12578.8 5407.25 12600.5 5432.78 12615C5458.31 12629.5 5487.03 12636.8 5518.94 12636.8C5558.97 12636.8 5592.33 12627.2 5619.02 12608.1C5646.29 12588.3 5663.98 12561.1 5672.11 12526.3H5737.38C5726.35 12575 5701.7 12614.2 5663.4 12643.8C5625.11 12673.3 5576.96 12688.1 5518.94 12688.1C5474.26 12688.1 5434.52 12678.3 5399.71 12658.5C5364.9 12638.2 5337.63 12609.8 5317.9 12573.3C5298.18 12536.1 5288.31 12492.9 5288.31 12443.6Z" fill="url(#paint1_linear_541_11)"/>
<path d="M6084.86 12037.2V12681.2H6023.94V12037.2H6084.86Z" fill="url(#paint2_linear_541_11)"/>
<path d="M6808.52 12206V12681.2H6747.6V12597.6C6733.67 12627.2 6712.2 12649.8 6683.19 12665.5C6654.19 12681.2 6621.7 12689 6585.72 12689C6528.87 12689 6482.45 12671.6 6446.48 12636.8C6410.51 12601.4 6392.52 12550.3 6392.52 12483.6V12206H6452.57V12476.7C6452.57 12528.3 6465.33 12567.7 6490.86 12595C6516.97 12622.3 6552.36 12635.9 6597.04 12635.9C6642.87 12635.9 6679.42 12621.4 6706.69 12592.4C6733.96 12563.4 6747.6 12520.8 6747.6 12464.5V12206H6808.52Z" fill="url(#paint3_linear_541_11)"/>
<path d="M7181.7 12311.3C7197.37 12278.2 7221.45 12251.3 7253.94 12230.4C7287.01 12209.5 7325.88 12199 7370.55 12199C7414.07 12199 7452.94 12209.2 7487.17 12229.5C7521.4 12249.2 7548.09 12277.7 7567.24 12314.8C7586.96 12351.3 7596.83 12394 7596.83 12442.7C7596.83 12491.5 7586.96 12534.4 7567.24 12571.5C7548.09 12608.7 7521.11 12637.4 7486.3 12657.7C7452.07 12678 7413.49 12688.1 7370.55 12688.1C7325.3 12688.1 7286.14 12678 7253.07 12657.7C7220.57 12636.8 7196.79 12609.8 7181.7 12576.7V12681.2H7121.65V12037.2H7181.7V12311.3ZM7535.04 12442.7C7535.04 12403.3 7527.2 12369.3 7511.54 12340.9C7496.45 12311.9 7475.57 12289.8 7448.88 12274.8C7422.19 12259.7 7392.02 12252.1 7358.37 12252.1C7325.88 12252.1 7296 12260 7268.73 12275.6C7242.04 12291.3 7220.86 12313.6 7205.2 12342.6C7189.53 12371.6 7181.7 12405.3 7181.7 12443.6C7181.7 12481.9 7189.53 12515.5 7205.2 12544.5C7220.86 12573.6 7242.04 12595.9 7268.73 12611.6C7296 12627.2 7325.88 12635.1 7358.37 12635.1C7392.02 12635.1 7422.19 12627.5 7448.88 12612.4C7475.57 12596.8 7496.45 12574.4 7511.54 12545.4C7527.2 12515.8 7535.04 12481.6 7535.04 12442.7Z" fill="url(#paint4_linear_541_11)"/>
</g>
<rect opacity="0.7" x="8578.45" y="12308.3" width="4450.86" height="49.7303" fill="url(#paint5_linear_541_11)"/>
<rect opacity="0.7" y="12308.3" width="4450.86" height="49.7303" fill="url(#paint6_linear_541_11)"/>
<defs>
<linearGradient id="paint0_linear_541_11" x1="0" y1="5638.84" x2="13029.3" y2="5638.84" gradientUnits="userSpaceOnUse">
<stop stop-color="#7A7A7A"/>
<stop offset="0.3" stop-color="#BD9555"/>
<stop offset="0.51453" stop-color="#D7C982"/>
<stop offset="0.6352" stop-color="#FCEFCF"/>
<stop offset="0.77591" stop-color="#E1B16E"/>
<stop offset="1" stop-color="#9A783A"/>
</linearGradient>
<linearGradient id="paint1_linear_541_11" x1="5288.31" y1="12363.1" x2="7596.83" y2="12363.1" gradientUnits="userSpaceOnUse">
<stop stop-color="#7A7A7A"/>
<stop offset="0.3" stop-color="#BD9555"/>
<stop offset="0.51453" stop-color="#D7C982"/>
<stop offset="0.6352" stop-color="#FCEFCF"/>
<stop offset="0.77591" stop-color="#E1B16E"/>
<stop offset="1" stop-color="#9A783A"/>
</linearGradient>
<linearGradient id="paint2_linear_541_11" x1="5288.31" y1="12363.1" x2="7596.83" y2="12363.1" gradientUnits="userSpaceOnUse">
<stop stop-color="#7A7A7A"/>
<stop offset="0.3" stop-color="#BD9555"/>
<stop offset="0.51453" stop-color="#D7C982"/>
<stop offset="0.6352" stop-color="#FCEFCF"/>
<stop offset="0.77591" stop-color="#E1B16E"/>
<stop offset="1" stop-color="#9A783A"/>
</linearGradient>
<linearGradient id="paint3_linear_541_11" x1="5288.31" y1="12363.1" x2="7596.83" y2="12363.1" gradientUnits="userSpaceOnUse">
<stop stop-color="#7A7A7A"/>
<stop offset="0.3" stop-color="#BD9555"/>
<stop offset="0.51453" stop-color="#D7C982"/>
<stop offset="0.6352" stop-color="#FCEFCF"/>
<stop offset="0.77591" stop-color="#E1B16E"/>
<stop offset="1" stop-color="#9A783A"/>
</linearGradient>
<linearGradient id="paint4_linear_541_11" x1="5288.31" y1="12363.1" x2="7596.83" y2="12363.1" gradientUnits="userSpaceOnUse">
<stop stop-color="#7A7A7A"/>
<stop offset="0.3" stop-color="#BD9555"/>
<stop offset="0.51453" stop-color="#D7C982"/>
<stop offset="0.6352" stop-color="#FCEFCF"/>
<stop offset="0.77591" stop-color="#E1B16E"/>
<stop offset="1" stop-color="#9A783A"/>
</linearGradient>
<linearGradient id="paint5_linear_541_11" x1="8578.45" y1="12333.2" x2="13029.3" y2="12333.2" gradientUnits="userSpaceOnUse">
<stop stop-color="#7A7A7A"/>
<stop offset="0.3" stop-color="#BD9555"/>
<stop offset="0.51453" stop-color="#D7C982"/>
<stop offset="0.6352" stop-color="#FCEFCF"/>
<stop offset="0.77591" stop-color="#E1B16E"/>
<stop offset="1" stop-color="#9A783A"/>
</linearGradient>
<linearGradient id="paint6_linear_541_11" x1="0" y1="12333.2" x2="4450.86" y2="12333.2" gradientUnits="userSpaceOnUse">
<stop stop-color="#7A7A7A"/>
<stop offset="0.3" stop-color="#BD9555"/>
<stop offset="0.51453" stop-color="#D7C982"/>
<stop offset="0.6352" stop-color="#FCEFCF"/>
<stop offset="0.77591" stop-color="#E1B16E"/>
<stop offset="1" stop-color="#9A783A"/>
</linearGradient>
</defs>
</svg>
