<svg width="60" height="54" viewBox="0 0 60 54" fill="none" xmlns="http://www.w3.org/2000/svg">
<path opacity="0.4" d="M14.1152 29.6724C12.5669 29.6724 11.3134 30.9445 11.3134 32.5159L10.541 46.2523C10.541 48.2548 12.142 49.8761 14.1152 49.8761C16.0885 49.8761 17.686 48.2548 17.686 46.2523L16.9171 32.5159C16.9171 30.9445 15.6636 29.6724 14.1152 29.6724Z" fill="white"/>
<path d="M17.9414 2.02037C17.9414 2.02037 17.1374 1.1937 16.6388 0.833805C15.9155 0.277935 15.0237 0 14.1354 0C13.1383 0 12.2114 0.313568 11.4565 0.90507C11.3196 1.04404 10.7367 1.56784 10.2557 2.05601C7.23624 4.91018 2.29622 12.361 0.786472 16.2628C0.547721 16.8543 0.0315993 18.3508 0 19.1526C0 19.9151 0.16853 20.6491 0.512611 21.344C0.993623 22.2134 1.7485 22.9118 2.6403 23.2931C3.25824 23.539 5.10855 23.9202 5.14367 23.9202C7.16953 24.3051 10.4629 24.5117 14.1003 24.5117C17.5657 24.5117 20.7221 24.3051 22.7796 23.9915C22.8147 23.9559 25.1109 23.5746 25.9009 23.1541C27.3404 22.388 28.2357 20.8914 28.2357 19.2915V19.1526C28.2006 18.1085 27.3053 15.9136 27.2737 15.9136C25.764 12.222 21.0627 4.94582 17.9414 2.02037Z" fill="white"/>
<path opacity="0.4" d="M45.8862 24.3292C47.4346 24.3292 48.6881 23.0571 48.6881 21.4856L49.457 7.74892C49.457 5.74632 47.8594 4.125 45.8862 4.125C43.913 4.125 42.312 5.74632 42.312 7.74892L43.0844 21.4856C43.0844 23.0571 44.3379 24.3292 45.8862 24.3292Z" fill="white"/>
<path d="M59.4868 32.6563C59.0058 31.7869 58.2509 31.092 57.3591 30.7072C56.7412 30.4613 54.8873 30.08 54.8557 30.08C52.8299 29.6952 49.5365 29.4885 45.8991 29.4885C42.4337 29.4885 39.2773 29.6952 37.2198 30.0088C37.1847 30.0444 34.8885 30.4292 34.0985 30.8462C32.6555 31.6123 31.7637 33.1089 31.7637 34.7124V34.8514C31.7988 35.8954 32.6906 38.0869 32.7257 38.0869C34.2354 41.7785 38.9332 49.0584 42.058 51.9804C42.058 51.9804 42.8621 52.8071 43.3606 53.1634C44.0804 53.7228 44.9722 54.0008 45.8675 54.0008C46.8611 54.0008 47.7845 53.6872 48.5429 53.0957C48.6798 52.9567 49.2627 52.4329 49.7437 51.9483C52.7597 49.0905 57.7032 41.6395 59.2094 37.7412C59.4517 37.1497 59.9678 35.6495 59.9994 34.8514C59.9994 34.0852 59.8309 33.3512 59.4868 32.6563Z" fill="white"/>
</svg>
