<svg width="59" height="54" viewBox="0 0 59 54" fill="none" xmlns="http://www.w3.org/2000/svg">
<path d="M42.8156 0C52.982 0 58.9895 5.83693 58.9895 15.7467V15.8566H46.4972C40.6838 15.8668 35.9743 20.4587 35.9638 26.1269C35.9559 31.8078 40.6707 36.4201 46.4972 36.4278H59V37.3303C59 47.2401 52.9925 53.1 42.8261 53.1H16.1765C6.00751 53.1 0 47.2401 0 37.3303V15.7467C0 5.83693 6.00751 0 16.1765 0H42.8156ZM30.6302 11.431H13.9817C12.744 11.4361 11.7397 12.4153 11.7344 13.6246C11.7292 14.8391 12.7361 15.8285 13.9817 15.8336H30.6512C31.8967 15.8285 32.9036 14.8391 32.8984 13.6221C32.8932 12.4076 31.8757 11.4259 30.6302 11.431Z" fill="white"/>
<path opacity="0.4" d="M41.4104 27.4247C42.0273 30.2307 44.4875 32.2049 47.2962 32.1535H56.8835C58.0521 32.1535 59.0001 31.1857 59.0001 29.9893V22.5212C58.9975 21.3275 58.0521 20.3571 56.8835 20.3545H47.0705C43.8756 20.3648 41.295 23.0167 41.3001 26.2848C41.3001 26.6673 41.3377 27.0498 41.4104 27.4247Z" fill="white"/>
<path d="M47.2 29.2044C48.8292 29.2044 50.15 27.8837 50.15 26.2544C50.15 24.6252 48.8292 23.3044 47.2 23.3044C45.5708 23.3044 44.25 24.6252 44.25 26.2544C44.25 27.8837 45.5708 29.2044 47.2 29.2044Z" fill="white"/>
</svg>
